<svg id="visual" viewBox="0 0 900 600" width="900" height="600" xmlns="http://www.w3.org/2000/svg" xmlns:xlink="http://www.w3.org/1999/xlink" version="1.1"><rect x="0" y="0" width="900" height="600" fill="#001220"></rect><defs><linearGradient id="grad1_0" x1="33.3%" y1="100%" x2="100%" y2="0%"><stop offset="20%" stop-color="#001220" stop-opacity="1"></stop><stop offset="80%" stop-color="#001220" stop-opacity="1"></stop></linearGradient></defs><defs><linearGradient id="grad2_0" x1="0%" y1="100%" x2="66.7%" y2="0%"><stop offset="20%" stop-color="#001220" stop-opacity="1"></stop><stop offset="80%" stop-color="#001220" stop-opacity="1"></stop></linearGradient></defs><g transform="translate(900, 600)"><path d="M-486.7 0C-486 -69.1 -485.2 -138.1 -449.7 -186.3C-414.2 -234.4 -343.9 -261.6 -292 -292C-240.2 -322.4 -206.7 -356 -161.1 -389C-115.5 -421.9 -57.8 -454.3 0 -486.7L0 0Z" fill="#FBAE3C"></path></g><g transform="translate(0, 0)"><path d="M486.7 0C488 70.6 489.2 141.2 449.7 186.3C410.2 231.4 329.9 250.9 275.8 275.8C221.6 300.6 193.5 330.7 151.9 366.8C110.3 402.8 55.2 444.8 0 486.7L0 0Z" fill="#FBAE3C"></path></g></svg>